<svg id="Capa_1" data-name="Capa 1" xmlns="http://www.w3.org/2000/svg" viewBox="0 0 30 30"><defs><style>.cls-1{fill:#5192ff;}.cls-2{fill:#fff;}</style></defs><circle class="cls-1" cx="15" cy="15" r="15"/><g id="Capa_2" data-name="Capa 2"><path class="cls-2" d="M15.27,6.86A8.15,8.15,0,0,0,7.13,15a8,8,0,0,0,1,3.92l-.7,2.55a1.18,1.18,0,0,0,1.43,1.44l2.66-.69A8.14,8.14,0,1,0,15.27,6.86Zm0,.79A7.34,7.34,0,0,1,22.61,15a7.35,7.35,0,0,1-7.34,7.35,7.54,7.54,0,0,1-3.52-.89.39.39,0,0,0-.19-.06.2.2,0,0,0-.1,0l-2.8.73a.39.39,0,0,1-.48-.48L8.91,19a.35.35,0,0,0,0-.3,7.39,7.39,0,0,1,6.4-11Zm0,1.18a6.18,6.18,0,0,0-5.35,9.25,1.6,1.6,0,0,1,.16,1.21L9.7,20.67l1.47-.38a1.31,1.31,0,0,1,.39-.05,1.47,1.47,0,0,1,.75.19,6.33,6.33,0,0,0,3,.74,6.17,6.17,0,0,0,0-12.34Zm-2.75,2.59h.37c.14,0,.29,0,.43.33s.55,1.33.59,1.43a.34.34,0,0,1,0,.34,1.27,1.27,0,0,1-.2.33l-.29.34c-.09.09-.2.19-.08.39a5.75,5.75,0,0,0,1.08,1.34,5.37,5.37,0,0,0,1.56,1c.2.09.3.08.42-.06a8.77,8.77,0,0,0,.62-.76c.13-.19.26-.15.43-.09s1.13.54,1.33.63.32.15.36.22a1.57,1.57,0,0,1-.1.95,2,2,0,0,1-1.31.92,4,4,0,0,1-2.33-.49,7.8,7.8,0,0,1-3.3-2.92,3.79,3.79,0,0,1-.79-2A2.17,2.17,0,0,1,12,11.65.69.69,0,0,1,12.52,11.42Z"/></g></svg>