<svg id="Capa_1" data-name="Capa 1" xmlns="http://www.w3.org/2000/svg" viewBox="0 0 30 30"><defs><style>.cls-1{fill:none;stroke:#ccc;}.cls-2{fill:#ccc;}</style></defs><circle class="cls-1" cx="15" cy="15" r="14.5"/><g id="Capa_2" data-name="Capa 2"><path class="cls-2" d="M15.3,6.3a8.15,8.15,0,0,0-8.14,8.14,8,8,0,0,0,1,3.92l-.69,2.55A1.12,1.12,0,0,0,7.78,22a1.16,1.16,0,0,0,1.13.32l2.65-.7a8,8,0,0,0,3.75.92,8.15,8.15,0,0,0,8.14-8.13,8,8,0,0,0-2.38-5.75A8.13,8.13,0,0,0,15.3,6.3Zm0,.79a7.36,7.36,0,0,1,7.35,7.35,7.35,7.35,0,0,1-7.35,7.34,7.48,7.48,0,0,1-3.52-.89.53.53,0,0,0-.18-.05h-.11l-2.79.74a.41.41,0,0,1-.49-.49L9,18.4a.44.44,0,0,0,0-.3,7.44,7.44,0,0,1-1-3.66A7.35,7.35,0,0,1,15.3,7.09Zm0,1.18A6.16,6.16,0,0,0,10,17.52a1.6,1.6,0,0,1,.15,1.21L9.73,20.1l1.47-.38a1.83,1.83,0,0,1,.4,0,1.47,1.47,0,0,1,.74.2,6.45,6.45,0,0,0,3,.73,6.17,6.17,0,0,0,6.16-6.16A6.16,6.16,0,0,0,15.3,8.27Zm-2.75,2.58h.37c.15,0,.29,0,.43.33s.56,1.34.6,1.43A.37.37,0,0,1,14,13a1.27,1.27,0,0,1-.2.33c-.09.12-.21.25-.29.34a.29.29,0,0,0-.08.4,6,6,0,0,0,1.08,1.33,5.16,5.16,0,0,0,1.56,1c.2.09.3.08.42,0a8.77,8.77,0,0,0,.62-.76c.13-.2.26-.16.43-.09s1.13.53,1.33.63.33.14.36.22a1.54,1.54,0,0,1-.1.94,1.91,1.91,0,0,1-1.31.92c-.36,0-.69.16-2.33-.48a7.93,7.93,0,0,1-3.3-2.93,3.83,3.83,0,0,1-.79-2A2.17,2.17,0,0,1,12,11.09.69.69,0,0,1,12.55,10.85Z"/></g></svg>