<svg id="Capa_1" data-name="Capa 1" xmlns="http://www.w3.org/2000/svg" viewBox="0 0 30 30"><defs><style>.cls-1{fill:none;stroke:#ccc;}.cls-2{fill:#ccc;}</style></defs><circle class="cls-1" cx="15" cy="15" r="14.5"/><path class="cls-2" d="M22.74,10.73A2.16,2.16,0,0,0,21,9.1a33.51,33.51,0,0,0-6.09-.46,33.89,33.89,0,0,0-6.12.46,2.1,2.1,0,0,0-1.71,1.63,25.41,25.41,0,0,0-.31,4,20.56,20.56,0,0,0,.35,4,2.15,2.15,0,0,0,1.71,1.64,35.64,35.64,0,0,0,6.12.45,35.64,35.64,0,0,0,6.12-.45,2.13,2.13,0,0,0,1.72-1.64,29.63,29.63,0,0,0,.38-4A27.24,27.24,0,0,0,22.74,10.73Zm-9.85,6.66V12.07l4.64,2.66Z"/></svg>