<svg id="Capa_1" data-name="Capa 1" xmlns="http://www.w3.org/2000/svg" viewBox="0 0 30 30"><defs><style>.cls-1{fill:#5192ff;}.cls-2{fill:#fff;}</style></defs><circle class="cls-1" cx="15" cy="15" r="15"/><path class="cls-2" d="M23.05,11a2.15,2.15,0,0,0-1.71-1.64,33.3,33.3,0,0,0-6.08-.46,33.81,33.81,0,0,0-6.12.46A2.13,2.13,0,0,0,7.42,11a25.37,25.37,0,0,0-.3,4,20.7,20.7,0,0,0,.34,4,2.17,2.17,0,0,0,1.71,1.64,34.6,34.6,0,0,0,6.13.46,34.47,34.47,0,0,0,6.12-.46A2.1,2.1,0,0,0,23.13,19a29.63,29.63,0,0,0,.38-4A25.61,25.61,0,0,0,23.05,11ZM13.2,17.66V12.34L17.84,15Z"/></svg>